<?xml version="1.0" standalone="no"?>
<!DOCTYPE svg PUBLIC "-//W3C//DTD SVG 20010904//EN"
 "http://www.w3.org/TR/2001/REC-SVG-20010904/DTD/svg10.dtd">
<svg version="1.0" xmlns="http://www.w3.org/2000/svg"
 width="300.000000pt" height="300.000000pt" viewBox="0 0 300.000000 300.000000"
 preserveAspectRatio="xMidYMid meet">

<g transform="translate(0.000000,300.000000) scale(0.100000,-0.100000)"
fill="#000000" stroke="none">
<path d="M1262 1810 l-2 -155 157 3 c258 4 282 8 61 10 l-207 2 -4 148 -3 147
-2 -155z"/>
<path d="M1527 1863 l212 -3 4 -153 3 -152 2 158 2 157 -217 -2 -218 -3 212
-2z"/>
<path d="M455 1355 c-70 -37 -95 -127 -56 -203 27 -54 70 -76 141 -75 39 1 64
-4 87 -18 39 -24 53 -8 17 20 l-26 20 24 33 c18 26 23 46 23 95 0 59 -2 65
-37 99 -31 32 -44 38 -90 41 -35 2 -63 -2 -83 -12z m146 -43 c42 -38 51 -105
20 -155 -80 -129 -266 -13 -196 123 34 66 120 82 176 32z"/>
<path d="M800 1263 c0 -123 9 -150 60 -176 47 -24 97 -15 133 24 26 28 27 33
27 145 0 88 -3 115 -12 112 -9 -3 -14 -38 -16 -116 -3 -106 -4 -112 -29 -132
-35 -27 -78 -26 -108 5 -24 23 -25 31 -25 135 0 91 -3 110 -15 110 -12 0 -15
-19 -15 -107z"/>
<path d="M1170 1225 c0 -122 2 -145 15 -145 13 0 15 23 15 145 0 122 -2 145
-15 145 -13 0 -15 -23 -15 -145z"/>
<path d="M1340 1355 c0 -12 15 -15 75 -15 l75 0 -37 -57 c-20 -32 -56 -88 -80
-125 -23 -37 -43 -69 -43 -72 0 -4 48 -6 106 -6 80 0 105 3 102 13 -3 7 -33
14 -81 17 l-76 5 74 117 c41 65 75 122 75 128 0 6 -36 10 -95 10 -78 0 -95 -3
-95 -15z"/>
<path d="M1650 1355 c0 -11 17 -15 76 -17 l76 -3 -29 -40 c-26 -37 -66 -101
-115 -182 l-20 -33 106 0 c86 0 106 3 106 15 0 11 -18 15 -80 17 l-79 3 74
115 c41 63 75 121 75 128 0 9 -26 12 -95 12 -77 0 -95 -3 -95 -15z"/>
<path d="M1980 1225 l0 -145 85 0 c69 0 85 3 85 15 0 12 -14 15 -70 15 l-70 0
0 50 0 50 60 0 c47 0 60 3 60 15 0 12 -13 15 -59 15 l-59 0 -4 50 -3 50 73 0
c57 0 72 3 72 15 0 12 -16 15 -85 15 l-85 0 0 -145z"/>
<path d="M2296 1349 c-30 -24 -35 -69 -9 -94 9 -9 40 -27 69 -40 58 -25 76
-49 64 -81 -14 -35 -89 -42 -128 -11 -9 7 -16 7 -23 0 -14 -14 23 -39 71 -48
47 -8 101 20 111 58 12 46 -8 73 -78 106 -66 32 -83 53 -66 80 11 17 83 22
116 7 12 -6 17 -4 17 6 0 38 -102 50 -144 17z"/>
<path d="M2580 1095 c0 -8 9 -15 20 -15 11 0 20 7 20 15 0 8 -9 15 -20 15 -11
0 -20 -7 -20 -15z"/>
</g>
</svg>
